<mxfile host="app.diagrams.net" modified="2024-01-11T03:17:45.110Z" agent="Mozilla/5.0 (Windows NT 10.0; Win64; x64) AppleWebKit/537.36 (KHTML, like Gecko) Chrome/120.0.0.0 Safari/537.36 Edg/120.0.0.0" version="22.1.18" etag="QBA4LTg11FYcaQWN6-qk" type="github">
  <diagram name="Page-1" id="MyQFximetOWyU0fwpo78">
    <mxGraphModel>
      <root>
        <mxCell id="0" />
        <mxCell id="1" parent="0" />
      </root>
    </mxGraphModel>
  </diagram>
</mxfile>
